<?xml version="1.0" standalone="no"?>
<!DOCTYPE svg PUBLIC "-//W3C//DTD SVG 20010904//EN"
 "http://www.w3.org/TR/2001/REC-SVG-20010904/DTD/svg10.dtd">
<svg version="1.0" xmlns="http://www.w3.org/2000/svg"
 width="303.000000pt" height="303.000000pt" viewBox="0 0 303.000000 303.000000"
 preserveAspectRatio="xMidYMid meet">
<metadata></metadata>
<g transform="translate(0.000000,303.000000) scale(0.100000,-0.100000)"
fill="#000000" stroke="none">
<path d="M1321 2743 c-120 -19 -211 -48 -336 -109 -359 -175 -601 -510 -660
-914 -15 -101 -7 -295 17 -400 5 -25 11 -52 13 -60 8 -36 60 -170 88 -225 82
-164 252 -356 392 -445 127 -81 262 -109 389 -80 22 5 52 11 66 14 105 22 251
75 355 129 61 32 210 136 203 142 -2 2 -41 -7 -86 -21 -348 -101 -744 -1 -997
252 -125 125 -143 152 -156 236 -11 75 -13 203 -4 273 16 125 68 280 127 376
15 25 28 49 28 53 0 3 12 25 27 47 15 23 44 86 65 142 50 133 113 232 216 338
94 97 175 159 277 214 109 58 109 59 -24 38z"/>
<path d="M1605 2735 c-113 -26 -277 -129 -419 -265 -84 -79 -186 -201 -213
-253 l-16 -32 44 36 c96 78 276 159 409 184 76 14 118 18 195 17 194 -1 359
-47 529 -149 167 -100 327 -280 347 -390 10 -54 8 -241 -4 -309 -38 -217 -158
-425 -356 -618 -39 -38 -71 -72 -71 -77 0 -10 -108 -150 -134 -173 -97 -86
-264 -183 -381 -219 -77 -25 -176 -46 -251 -53 -79 -8 -68 -16 54 -37 210 -36
491 4 705 102 151 69 337 218 432 346 17 22 32 42 35 45 13 12 91 149 110 195
69 160 102 308 103 465 2 329 -123 631 -360 867 -215 214 -567 362 -758 318z"/>
</g>
</svg>
